HIERARCHY
ROOT Hips
{
 OFFSET 0.000000 0.000000 0.000000
 CHANNELS 6 Xposition Yposition Zposition Yrotation Xrotation Zrotation
 JOINT Chest
 {
  OFFSET 0.000000 9.585900 0.002600
  CHANNELS 3 Yrotation Xrotation Zrotation
  JOINT Chest2
  {
   OFFSET 0.000000 9.601200 -0.005300
   CHANNELS 3 Yrotation Xrotation Zrotation
   JOINT Chest3
   {
    OFFSET 0.000000 9.561800 0.000000
    CHANNELS 3 Yrotation Xrotation Zrotation
    JOINT Chest4
    {
     OFFSET 0.000000 9.552100 0.000000
     CHANNELS 3 Yrotation Xrotation Zrotation
     JOINT Neck
     {
      OFFSET 0.000000 14.453000 0.000000
      CHANNELS 3 Yrotation Xrotation Zrotation
      JOINT Head
      {
       OFFSET 0.000000 8.936500 -0.011300
       CHANNELS 3 Yrotation Xrotation Zrotation
       End Site
       {
        OFFSET 0.000000 17.073600 -0.006000
       }
      }
     }
     JOINT RightCollar
     {
      OFFSET -2.921100 9.558500 0.000000
      CHANNELS 3 Yrotation Xrotation Zrotation
      JOINT RightShoulder
      {
       OFFSET -13.519700 0.000000 0.000000
       CHANNELS 3 Yrotation Xrotation Zrotation
       JOINT RightElbow
       {
        OFFSET 0.000000 -29.696600 0.000000
        CHANNELS 3 Yrotation Xrotation Zrotation
        JOINT RightWrist
        {
         OFFSET 0.000000 -24.004700 0.000000
         CHANNELS 3 Yrotation Xrotation Zrotation
         End Site
         {
          OFFSET 0.000000 -17.728500 0.000000
         }
        }
       }
      }
     }
     JOINT LeftCollar
     {
      OFFSET 2.921100 9.558500 0.000000
      CHANNELS 3 Yrotation Xrotation Zrotation
      JOINT LeftShoulder
      {
       OFFSET 13.519700 0.000000 0.000000
       CHANNELS 3 Yrotation Xrotation Zrotation
       JOINT LeftElbow
       {
        OFFSET 0.000000 -29.696600 0.000000
        CHANNELS 3 Yrotation Xrotation Zrotation
        JOINT LeftWrist
        {
         OFFSET 0.000000 -24.004700 0.000000
         CHANNELS 3 Yrotation Xrotation Zrotation
         End Site
         {
          OFFSET 0.000000 -17.728500 0.000000
         }
        }
       }
      }
     }
    }
   }
  }
 }
 JOINT RightHip
 {
  OFFSET -7.771700 -0.012900 -0.001300
  CHANNELS 3 Yrotation Xrotation Zrotation
  JOINT RightKnee
  {
   OFFSET 0.000000 -40.869800 0.001200
   CHANNELS 3 Yrotation Xrotation Zrotation
   JOINT RightAnkle
   {
    OFFSET 0.000000 -39.717900 0.002100
    CHANNELS 3 Yrotation Xrotation Zrotation
    JOINT RightToe
    {
     OFFSET 0.000000 -4.965400 11.033500
     CHANNELS 3 Yrotation Xrotation Zrotation
     End Site
     {
      OFFSET 0.000000 -1.423100 5.872300
     }
    }
   }
  }
 }
 JOINT LeftHip
 {
  OFFSET 7.771700 -0.012900 -0.001300
  CHANNELS 3 Yrotation Xrotation Zrotation
  JOINT LeftKnee
  {
   OFFSET 0.000000 -40.869800 0.001200
   CHANNELS 3 Yrotation Xrotation Zrotation
   JOINT LeftAnkle
   {
    OFFSET 0.000000 -39.717900 0.002100
    CHANNELS 3 Yrotation Xrotation Zrotation
    JOINT LeftToe
    {
     OFFSET 0.000000 -4.965400 11.033500
     CHANNELS 3 Yrotation Xrotation Zrotation
     End Site
     {
      OFFSET 0.000000 -1.423100 5.872300
     }
    }
   }
  }
 }
}
MOTION
Frames: 9
Frame Time: 0.008333
0.000000 85.388000 0.000000 0.000000 -5.767877 0.000000 0.000000 11.653817 0.000000 0.000000 -5.885947 0.000000 0.000000 -0.000000 0.000000 0.000000 -0.000000 0.000000 0.000000 12.528835 0.000000 0.000000 0.711642 0.000000 0.000000 -0.000000 0.000000 0.000000 0.000000 -90.000000 0.000000 -2.309062 0.000000 0.000000 2.309062 0.000000 0.000000 -0.000000 0.000000 0.000000 -0.000000 90.000000 0.000000 -2.309062 0.000000 0.000000 2.309062 0.000000 0.000000 8.520406 0.000000 0.000000 1.905762 0.000000 -0.000000 -4.658285 0.000000 0.000000 -0.000000 0.000000 0.000000 8.520406 0.000000 0.000000 1.905762 0.000000 -0.000000 -4.658285 0.000000 0.000000 -0.000000 0.000000
-215.776300 57.074815 134.622983 178.686221 -30.561486 -0.501721 0.599271 21.879341 2.325365 -0.009555 2.982115 0.345017 0.000655 4.858079 0.567393 0.425733 18.514763 2.298821 0.847321 12.581872 -2.886403 2.796606 -12.329644 -5.836037 3.560787 -1.239999 -1.953029 14.644345 -24.182571 -13.457845 68.153386 -78.299510 -42.286095 9.770238 -11.070774 -43.345877 -8.310328 -2.791392 -3.420781 -4.380774 -18.322696 0.258799 -74.213346 -50.682255 44.449838 -20.701593 3.550902 9.291896 2.459726 -46.435461 -3.598909 -14.710177 67.039840 -21.671380 7.149660 27.309549 4.021953 -0.961391 -18.557832 7.149966 -11.870313 -43.521420 0.867435 32.003331 69.899569 35.526865 -17.556446 3.521398 -8.915751 0.148200 0.386120 0.095998
-215.789262 57.081666 134.624439 178.682462 -30.585090 -0.487088 0.532694 21.889517 2.258202 -0.041626 2.982474 0.332865 0.005952 4.868095 0.567823 0.374366 18.529065 2.263437 0.965753 12.602855 -2.836088 2.875489 -12.227078 -5.660962 3.668061 -1.257714 -1.908370 15.220191 -24.307744 -13.564802 58.576444 -75.471551 -32.087527 9.857739 -10.051480 -41.592177 -8.480592 -2.859274 -3.631200 -5.448089 -19.166502 0.441433 -74.362361 -48.002290 42.707670 -23.965270 3.986286 16.295106 2.540822 -46.394928 -3.638161 -14.765876 67.017952 -21.719728 7.131926 27.307380 4.038725 -0.943090 -18.550445 7.158991 -11.812760 -43.478755 0.785570 31.965904 69.852568 35.527061 -17.540527 3.532990 -8.923871 0.154242 0.400966 0.088788
-215.813064 57.093736 134.620238 178.613791 -30.651890 -0.379184 0.489463 21.941913 2.123665 -0.075537 2.981379 0.321469 0.013155 4.877848 0.568403 0.321610 18.542218 2.229239 1.030956 12.659360 -2.735350 3.014537 -12.154457 -5.554383 3.777156 -1.251823 -1.851427 15.827943 -24.493974 -13.698952 52.475198 -72.279093 -25.251231 10.051551 -8.781657 -39.818511 -8.642991 -2.918537 -3.844052 -6.488892 -20.017230 0.661954 -75.678261 -45.507550 42.370297 -26.772375 3.229023 23.272993 2.689659 -46.318202 -3.743068 -14.752972 67.004907 -21.728439 7.117637 27.318854 4.057006 -0.927200 -18.554725 7.165953 -11.582060 -43.368630 0.515559 32.002981 69.748098 35.649875 -17.441565 3.485571 -8.890834 0.062147 0.482688 0.042470
-215.830209 57.107199 134.617267 178.540488 -30.716589 -0.306001 0.387642 21.976319 1.981383 -0.026364 2.999518 0.338794 0.000494 4.884071 0.562068 0.269045 18.554710 2.196958 1.093724 12.714865 -2.635582 3.154169 -12.081835 -5.453221 3.923048 -1.242346 -1.829617 16.388635 -24.742921 -13.806913 48.569384 -68.814378 -20.437413 10.450539 -7.266420 -38.093090 -8.801465 -2.961444 -4.050058 -7.510400 -20.864435 0.895945 -77.966226 -43.475702 43.265680 -28.532877 2.337436 27.878824 2.802276 -46.243951 -3.792625 -14.738338 66.987944 -21.729385 7.109168 27.337126 4.074853 -0.916009 -18.562921 7.169449 -11.400669 -43.242676 0.360203 31.925845 69.663240 35.629222 -17.422192 3.404539 -8.889825 0.059881 0.579821 0.033613
-215.838420 57.119897 134.618670 178.483952 -30.758052 -0.283216 0.368911 22.003326 1.942293 -0.009286 3.007247 0.343755 -0.005884 4.887251 0.559007 0.151222 18.562128 2.156777 1.175085 12.756457 -2.556097 3.273889 -12.004228 -5.333214 4.070614 -1.216631 -1.789537 16.967764 -25.054750 -13.956184 46.005464 -65.131429 -16.830302 10.865132 -6.032240 -36.237437 -8.949366 -2.983080 -4.248450 -8.524378 -21.670877 1.116961 -80.379936 -41.514079 44.490506 -28.636699 1.663176 30.586903 2.883384 -46.193674 -3.794145 -14.738547 66.966476 -21.730159 7.110694 27.370215 4.105815 -0.909327 -18.582352 7.165230 -11.311547 -43.163933 0.313132 31.841555 69.626789 35.576673 -17.409981 3.382549 -8.897329 0.063855 0.610538 0.035697
-215.846263 57.132955 134.621516 178.427298 -30.795769 -0.241616 0.277672 22.019393 1.848956 -0.019687 3.012669 0.339552 -0.022964 4.895690 0.551910 0.125479 18.577454 2.132018 1.257013 12.795313 -2.478703 3.395627 -11.931643 -5.217439 4.241654 -1.140604 -1.693901 17.584391 -25.436054 -14.205137 44.394403 -61.331871 -14.088442 11.635952 -5.170922 -34.083964 -9.084069 -2.984844 -4.441815 -9.524660 -22.369588 1.304675 -81.916929 -39.586274 45.226681 -27.671614 0.958033 31.885956 3.031106 -46.150448 -3.838520 -14.801087 66.951876 -21.767259 7.068513 27.404972 4.102307 -0.878046 -18.603597 7.181057 -11.309703 -43.083389 0.296087 31.834775 69.578024 35.534126 -17.365527 3.345452 -8.887244 0.035760 0.658373 0.017981
-215.843562 57.143838 134.629838 178.384315 -30.804312 -0.242198 0.181792 22.006890 1.793547 -0.030422 3.017909 0.335770 -0.040528 4.903817 0.545419 0.101014 18.592532 2.108249 1.337749 12.830958 -2.403429 3.516246 -11.864946 -5.105436 4.416634 -1.080918 -1.653282 18.221966 -25.842379 -14.420398 44.633984 -57.803169 -13.267663 13.691959 -3.291219 -31.240775 -9.208876 -2.981037 -4.627006 -10.494623 -22.882282 1.444058 -82.575813 -38.225832 45.383346 -27.187405 1.054853 31.008465 3.100332 -46.139987 -3.822143 -14.828313 66.934698 -21.785049 7.090733 27.433074 4.150800 -0.898688 -18.617589 7.170374 -11.515010 -43.054463 0.487043 31.853873 69.585064 35.394480 -17.368526 3.362393 -8.904208 0.069507 0.646642 0.029636
-215.830812 57.152011 134.644133 178.318053 -30.780286 -0.257472 0.145011 21.967270 1.786708 -0.038703 3.022286 0.333352 -0.053969 4.910528 0.541213 0.046558 18.604799 2.083890 1.414847 12.860529 -2.331102 3.631551 -11.809483 -4.997973 4.578883 -0.994197 -1.616630 18.937877 -26.283838 -14.668944 46.337893 -55.254066 -14.122164 16.882601 0.278731 -28.163580 -9.326444 -2.989153 -4.794836 -11.393178 -23.159796 1.540167 -82.928841 -37.497437 45.236584 -28.261697 2.573188 27.872810 3.146866 -46.160827 -3.735045 -14.757145 66.899861 -21.739515 7.079687 27.511072 4.218087 -0.924318 -18.655424 7.158067 -11.666259 -43.049690 0.700967 31.790519 69.593907 35.212901 -17.391505 3.370677 -8.935185 0.121262 0.645852 0.056428
